<svg xmlns="http://www.w3.org/2000/svg" version="1.1" viewBox="0 0 180 50">
<path fill="#ffffff" d="   M 64.80 36.79   Q 61.79 38.71 58.11 38.73   Q 57.32 38.73 57.39 37.95   L 59.48 12.22   Q 59.53 11.54 60.20 11.38   L 66.45 9.93   Q 67.14 9.76 67.07 10.47   L 66.20 19.24   Q 66.13 19.98 66.75 19.59   C 76.89 13.23 80.64 25.18 77.79 32.54   C 75.66 38.07 70.47 41.18 65.18 36.81   A 0.32 0.32 0.0 0 0 64.80 36.79   Z   M 65.74 33.09   L 68.19 34.22   Q 68.79 34.50 69.26 34.05   Q 73.10 30.41 71.82 24.89   C 71.12 21.90 67.59 22.37 66.30 24.25   C 65.13 25.96 65.27 29.75 65.07 31.92   Q 65.00 32.74 65.74 33.09   Z"/>
<path fill="#ffffff" d="   M 27.98 24.11   L 31.32 13.30   Q 31.49 12.76 32.04 12.63   L 37.24 11.42   A 0.61 0.60 -87.5 0 1 37.95 12.20   L 29.78 36.78   Q 29.62 37.27 29.15 37.49   L 25.61 39.14   Q 24.98 39.43 24.79 38.76   L 21.85 28.31   A 0.35 0.35 0.0 0 0 21.20 28.26   C 19.15 32.77 17.84 36.61 13.38 39.25   A 0.54 0.54 0.0 0 1 12.58 38.93   L 5.44 13.65   A 1.29 1.29 0.0 0 1 6.54 12.01   L 11.93 11.38   Q 12.68 11.29 12.88 12.03   L 16.40 25.47   Q 16.53 25.96 16.89 25.60   Q 20.92 21.56 18.46 16.20   A 1.71 1.70 73.7 0 1 19.77 13.80   L 24.03 13.19   A 1.11 1.10 -10.2 0 1 25.26 14.04   L 27.47 24.09   A 0.26 0.26 0.0 0 0 27.98 24.11   Z"/>
<path fill="#ffffff" d="   M 92.94 17.74   L 89.98 18.28   A 0.55 0.54 -72.0 0 1 89.51 17.35   C 91.68 15.27 93.80 12.51 96.78 11.84   C 104.93 10.03 115.42 13.31 115.33 23.23   C 115.20 35.93 101.11 39.39 90.93 38.93   Q 89.64 38.88 90.24 37.74   C 91.17 35.99 92.18 34.39 92.37 32.29   Q 93.00 25.23 93.41 18.15   Q 93.44 17.65 92.94 17.74   Z   M 99.83 33.34   C 110.67 33.02 108.38 15.41 101.33 17.12   Q 100.81 17.25 100.76 17.78   L 99.45 32.93   Q 99.41 33.35 99.83 33.34   Z"/>
<path fill="#ffffff" d="   M 138.19 28.80   C 136.59 41.01 118.55 42.63 117.00 31.17   Q 115.72 21.68 124.42 18.81   C 125.13 18.57 125.35 18.53 125.51 17.78   Q 125.64 17.22 126.21 17.32   C 132.94 18.46 139.28 20.44 138.19 28.80   Z   M 127.2307 34.1705   A 5.72 4.04 93.3 0 0 131.5933 28.6926   A 5.72 4.04 93.3 0 0 127.8893 22.7495   A 5.72 4.04 93.3 0 0 123.5267 28.2274   A 5.72 4.04 93.3 0 0 127.2307 34.1705   Z"/>
<path fill="#ffffff" d="   M 43.82 31.88   C 45.67 35.33 50.79 33.74 53.60 32.35   Q 54.25 32.04 54.25 32.76   L 54.25 36.22   Q 54.25 36.78 53.75 37.03   C 34.93 46.40 29.21 17.95 49.22 17.91   Q 50.46 17.90 52.25 19.40   C 60.53 26.30 50.78 31.62 44.25 31.22   Q 43.43 31.17 43.82 31.88   Z   M 48.49 22.79   Q 44.51 22.51 43.72 26.44   Q 43.61 26.96 44.14 26.92   C 45.57 26.78 50.33 25.77 49.63 23.68   A 1.29 1.29 0.0 0 0 48.49 22.79   Z"/>
<path fill="#ffffff" d="   M 165.38 31.80   C 166.64 35.40 172.72 33.69 175.12 32.27   Q 175.73 31.90 175.74 32.62   L 175.76 36.19   Q 175.76 36.73 175.29 36.99   C 167.07 41.48 155.41 36.82 158.53 26.02   C 160.16 20.37 168.00 14.82 173.78 19.43   C 182.15 26.09 172.13 31.63 165.82 31.23   Q 165.17 31.19 165.38 31.80   Z   M 169.94 22.77   Q 165.98 22.62 165.18 26.55   A 0.40 0.39 89.2 0 0 165.65 27.02   C 166.97 26.72 172.09 25.77 171.06 23.52   A 1.29 1.28 78.7 0 0 169.94 22.77   Z"/>
<path fill="#ffffff" d="   M 151.09 31.87   L 155.64 31.70   Q 156.55 31.67 156.14 32.48   L 153.68 37.36   Q 153.40 37.92 152.78 37.92   L 141.64 37.97   A 0.78 0.78 0.0 0 1 140.93 36.85   L 146.87 24.62   Q 147.17 24.00 146.47 24.00   L 140.61 24.00   Q 139.87 24.00 140.16 23.31   L 141.98 18.99   Q 142.23 18.40 142.87 18.42   L 155.89 18.79   A 0.34 0.34 0.0 0 1 156.20 19.27   L 150.71 31.31   Q 150.45 31.90 151.09 31.87   Z"/>
</svg>