<?xml version="1.0" encoding="UTF-8" standalone="no"?>
<svg xmlns="http://www.w3.org/2000/svg" version="1.1" viewBox="0.00 0.00 300.00 100.00">
  <path fill="#ffffff" d="   M 21.87 64.52   A 0.15 0.15 0.0 0 0 22.15 64.58   L 38.16 27.08   Q 38.40 26.50 39.03 26.50   L 46.32 26.50   Q 46.89 26.50 46.92 27.07   L 48.83 63.77   Q 48.86 64.47 49.15 63.83   L 65.55 26.98   Q 65.76 26.50 66.29 26.50   L 74.87 26.50   A 0.47 0.47 0.0 0 1 75.29 27.17   L 52.83 73.45   Q 52.56 74.00 51.94 74.00   L 38.10 74.00   A 0.96 0.96 0.0 0 1 37.14 73.10   L 35.86 53.30   Q 35.78 52.12 35.31 53.21   L 26.50 73.50   A 0.84 0.83 -78.0 0 1 25.74 74.00   L 9.50 74.00   Q 8.89 74.00 8.85 73.39   Q 7.90 56.70 6.76 40.00   Q 6.40 34.68 4.63 31.07   Q 4.39 30.58 3.92 30.28   Q 3.46 29.99 3.29 29.51   Q 3.14 29.05 3.44 28.67   C 7.60 23.43 16.48 24.31 19.70 29.52   Q 21.44 32.33 21.74 39.36   Q 22.28 51.99 21.87 64.52   Z"></path>
  <path fill="#ffffff" d="   M 133.24 73.43   A 0.39 0.38 12.0 0 1 132.94 72.98   L 141.67 27.01   Q 141.76 26.53 142.25 26.48   C 154.47 25.24 177.67 22.49 179.85 40.17   C 183.68 71.28 157.57 78.07 133.24 73.43   Z   M 164.84 37.06   C 164.29 33.10 160.85 30.22 156.78 30.85   Q 156.22 30.94 156.12 31.49   L 148.91 68.97   A 0.60 0.60 0.0 0 0 149.57 69.68   C 163.90 68.09 166.38 48.07 164.84 37.06   Z"></path>
  <path fill="#ffffff" d="   M 95.79 31.26   L 87.70 73.57   Q 87.62 74.00 87.18 74.00   L 72.49 74.00   Q 71.99 74.00 72.08 73.51   L 80.75 27.54   Q 80.82 27.15 81.21 27.10   Q 97.28 24.75 108.50 26.69   C 117.69 28.28 120.50 37.23 117.06 45.00   C 113.61 52.80 101.15 56.94 94.38 50.07   A 0.47 0.46 -22.5 0 1 94.71 49.28   C 106.43 49.15 109.09 28.21 96.35 30.69   Q 95.88 30.78 95.79 31.26   Z"></path>
  <path fill="#ffffff" d="   M 246.72 48.07   C 241.68 46.43 235.31 45.59 231.59 49.32   Q 231.24 49.67 230.97 49.26   C 226.63 42.95 229.23 35.12 237.76 35.51   C 244.03 35.80 252.05 38.17 258.02 36.76   Q 258.52 36.64 258.83 37.04   C 261.78 40.79 259.09 45.23 255.81 47.77   Q 247.01 54.57 238.15 61.29   Q 237.63 61.69 238.23 61.93   Q 245.47 64.88 252.67 62.06   A 0.54 0.44 -69.7 0 0 252.82 61.97   L 254.14 60.78   Q 254.62 60.36 254.89 60.93   C 258.83 69.29 254.87 75.71 246.06 75.26   C 240.23 74.97 233.71 72.58 228.25 73.79   A 2.52 2.52 0.0 0 1 225.24 71.85   Q 223.83 65.21 228.98 61.46   Q 237.72 55.10 246.81 48.66   A 0.34 0.33 -53.9 0 0 246.72 48.07   Z"></path>
  <path fill="#ffffff" d="   M 203.26 36.13   C 210.75 35.24 220.11 36.97 221.69 46.02   C 224.01 59.19 217.94 73.36 203.41 75.11   C 187.69 77.00 181.28 67.99 184.84 53.02   C 187.04 43.74 193.77 37.26 203.26 36.13   Z   M 205.99 40.27   C 199.09 40.25 197.71 62.75 197.73 67.08   C 197.76 72.65 203.30 71.94 204.72 68.13   C 206.06 64.54 212.98 40.29 205.99 40.27   Z"></path>
  <path fill="#ffffff" d="   M 264.00 51.46   Q 267.37 40.30 277.98 36.95   C 282.97 35.37 292.59 35.08 296.54 39.29   C 299.64 42.59 298.85 48.07 296.04 51.48   C 292.30 56.03 282.80 57.28 277.31 56.92   A 0.69 0.68 -83.5 0 0 276.59 57.50   C 274.71 69.90 286.53 67.32 291.80 62.22   Q 292.22 61.82 292.50 62.32   C 300.97 77.41 253.62 85.85 264.00 51.46   Z   M 277.37 53.16   Q 277.22 53.97 278.03 53.90   Q 287.56 53.07 288.25 42.97   Q 288.37 41.17 287.20 40.16   C 284.61 37.93 281.54 41.57 280.44 43.71   Q 278.46 47.57 277.37 53.16   Z"></path>
</svg>
